<svg width="2396" height="1402" xmlns="http://www.w3.org/2000/svg" xmlns:xlink="http://www.w3.org/1999/xlink" xml:space="preserve" overflow="hidden">

  <style>
  .flux {
    stroke-dasharray: 28 20;
    animation: flux-move 6s linear infinite;
  }

  @keyframes flux-move {
    from { stroke-dashoffset: 0; }
    to   { stroke-dashoffset: -288; }
  }

    .reverse {
  animation-direction: reverse;
}
  
  </style>
  
  <defs>
    
    <clipPath id="clip0">
      
      <rect x="424" y="564" width="2396" height="1402"/>
    
    </clipPath>
  
  </defs><g clip-path="url(#clip0)" transform="translate(-424 -564)">
    
    <path d="M1167.5 1752.5 1167.5 1534.53 1275.5 1452.97 1275.5 1403.5" stroke="#FFC000" stroke-width="6.875" stroke-miterlimit="8" stroke-opacity="0.2" fill="none" fill-rule="evenodd"/>
    
    <path d="M1013.5 1826.5 1013.5 1533.89 1166.5 1418.18 1166.5 1370.5" stroke="#FFC000" stroke-width="6.875" stroke-miterlimit="8" stroke-opacity="0.2" fill="none" fill-rule="evenodd"/>
    
    <path d="M861.5 1902.5 861.5 1532.68 1005.5 1423.5" stroke="#FFC000" stroke-width="6.875" stroke-miterlimit="8" stroke-opacity="0.2" fill="none" fill-rule="evenodd"/>
    
    <path d="M2643 1239.73C2643 1320.63 2544.92 1386.22 2423.94 1386.22L2423.86 1386.21 2423.82 1386.22 1853.31 1386.22 1839.43 1397.93C1795.42 1436.61 1727.78 1507.76 1702.82 1592.94 1628.37 1671.52 1593.75 1778.92 1575.06 1785.47 1566.92 1790.27 1543.7 1793.11 1520.76 1793 1497.82 1792.89 1475.17 1789.83 1468.16 1782.85 1462.19 1775.48 1427.7 1707.68 1392.49 1628.01L1381.94 1603.27 1320.17 1603.27C1307.25 1603.27 1296.78 1592.8 1296.78 1579.89L1296.78 1441.84C1296.78 1432.16 1302.67 1423.85 1311.06 1420.3L1316.02 1419.3 1312.47 1401.95 1310.85 1386.22 1281.69 1386.22C1276.29 1386.22 1271.92 1381.17 1271.92 1374.95L1271.92 1358.41 1244.58 1358.89C1197.55 1358.89 1151.65 1358.06 1107.31 1356.47L1050.61 1353.39 1050.61 1398.9C1050.61 1409.7 1041.85 1418.46 1031.05 1418.46 1020.25 1418.46 1011.49 1409.7 1011.49 1398.9L1011.49 1351.27 979.452 1349.53 969 1348.65 969 1130.82 979.452 1129.94 1011.49 1128.2 1011.49 1078.77C1011.49 1067.96 1020.25 1059.21 1031.05 1059.21 1041.85 1059.21 1050.61 1067.96 1050.61 1078.77L1050.61 1126.07 1107.31 1123C1151.65 1121.41 1197.55 1120.57 1244.58 1120.57L1271.92 1121.06 1271.92 1104.52C1271.92 1098.3 1276.29 1093.25 1281.69 1093.25L1310.9 1093.25 1312.47 1078.05 1316.02 1060.7 1311.06 1059.7C1302.67 1056.15 1296.78 1047.84 1296.78 1038.16L1296.78 900.11C1296.78 887.196 1307.25 876.728 1320.17 876.728L1381.94 876.728 1392.49 851.989C1427.7 772.319 1462.19 704.52 1468.16 697.153 1482.18 683.183 1558.78 684.929 1575.06 694.533 1593.75 701.082 1628.37 808.476 1702.82 887.057 1727.78 972.241 1795.42 1043.39 1839.43 1082.07L1852.68 1093.25 2423.82 1093.25 2423.86 1093.26 2423.94 1093.25C2544.92 1093.25 2643 1158.83 2643 1239.73Z" fill="#B88C00" fill-rule="evenodd" fill-opacity="0.2"/>
    
    <path d="M812.5 667.5 812.5 1113.5" stroke="#FFC000" stroke-width="6.875" stroke-miterlimit="8" stroke-opacity="0.2" fill="none" fill-rule="evenodd"/>
    
    <path d="M1194.5 667.5 1194.5 1070.26" stroke="#FFC000" stroke-width="6.875" stroke-miterlimit="8" stroke-opacity="0.2" fill="none" fill-rule="evenodd"/>
    
    <path d="M0 0 0.000360892 75.4698" stroke="#FFC000" stroke-width="6.875" stroke-miterlimit="8" stroke-opacity="0.2" fill="none" fill-rule="evenodd" transform="matrix(1 0 0 -1 1320.5 1692.97)"/>
    
    <path d="M1192.73 604.48C1192.14 604.48 1191.54 604.573 1190.94 604.76 1190.33 604.947 1189.7 605.258 1189.05 605.693 1188.39 606.129 1187.71 606.707 1186.98 607.427 1186.26 608.147 1185.49 609.04 1184.66 610.107L1184.66 623.093C1185.58 623.449 1186.51 623.729 1187.45 623.933 1188.4 624.138 1189.3 624.24 1190.16 624.24 1191.23 624.24 1192.26 624.071 1193.23 623.733 1194.2 623.396 1195.06 622.831 1195.8 622.04 1196.54 621.249 1197.13 620.2 1197.57 618.893 1198.01 617.587 1198.23 615.964 1198.23 614.027 1198.23 612.622 1198.13 611.333 1197.92 610.16 1197.71 608.987 1197.39 607.982 1196.94 607.147 1196.5 606.311 1195.92 605.658 1195.23 605.187 1194.53 604.716 1193.7 604.48 1192.73 604.48ZM1180 590 1184.66 590 1184.66 600.373 1184.45 605.333C1185.79 603.538 1187.22 602.271 1188.75 601.534 1190.28 600.796 1191.92 600.427 1193.67 600.427 1195.21 600.427 1196.56 600.747 1197.72 601.387 1198.88 602.027 1199.85 602.929 1200.64 604.093 1201.43 605.258 1202.02 606.662 1202.41 608.307 1202.8 609.951 1203 611.787 1203 613.813 1203 616.035 1202.69 618.022 1202.08 619.773 1201.46 621.524 1200.58 623.009 1199.45 624.227 1198.31 625.444 1196.93 626.378 1195.31 627.026 1193.68 627.675 1191.85 628 1189.81 628 1188.22 628 1186.59 627.849 1184.93 627.547 1183.27 627.244 1181.63 626.764 1180 626.107Z" fill="#FFC000" fill-rule="evenodd" fill-opacity="0.6"/>
    
    <path d="M809.478 612.212C808.327 612.212 807.335 612.328 806.502 612.562 805.67 612.795 804.988 613.127 804.456 613.558 803.925 613.989 803.531 614.505 803.274 615.106 803.017 615.707 802.889 616.385 802.889 617.138 802.889 617.659 802.969 618.157 803.128 618.633 803.287 619.108 803.544 619.53 803.898 619.898 804.253 620.266 804.713 620.558 805.28 620.773 805.847 620.988 806.538 621.096 807.353 621.096 808.415 621.096 809.633 620.769 811.006 620.114 812.379 619.458 813.827 618.422 815.35 617.004L815.35 612.212ZM809.584 597C811.196 597 812.649 597.18 813.942 597.539 815.235 597.898 816.329 598.445 817.223 599.181 818.118 599.917 818.804 600.841 819.282 601.954 819.761 603.067 820 604.377 820 605.885L820 624.516 815.855 624.516 815.749 620.881C814.296 622.335 812.822 623.385 811.325 624.031 809.828 624.677 808.256 625 806.608 625 805.085 625 803.783 624.802 802.703 624.408 801.622 624.013 800.732 623.47 800.033 622.779 799.333 622.088 798.819 621.276 798.491 620.342 798.164 619.409 798 618.395 798 617.3 798 614.59 798.996 612.467 800.989 610.933 802.982 609.398 805.926 608.631 809.823 608.631L815.35 608.631 815.35 606.262C815.35 604.664 814.845 603.385 813.836 602.425 812.826 601.465 811.285 600.985 809.212 600.985 807.707 600.985 806.223 601.155 804.762 601.497 803.301 601.837 801.791 602.322 800.232 602.95L800.232 598.723C800.816 598.508 801.467 598.297 802.185 598.091 802.902 597.884 803.659 597.7 804.456 597.539 805.253 597.377 806.086 597.247 806.954 597.148 807.822 597.05 808.699 597 809.584 597Z" fill="#FFC000" fill-rule="evenodd" fill-opacity="0.6"/>
    
    <path d="M860.664 1957C861.274 1957 861.852 1957.12 862.399 1957.35 862.946 1957.59 863.421 1957.91 863.824 1958.32 864.228 1958.74 864.546 1959.22 864.779 1959.77 865.012 1960.32 865.129 1960.91 865.129 1961.54 865.129 1962.15 865.012 1962.73 864.779 1963.27 864.546 1963.81 864.228 1964.28 863.824 1964.69 863.421 1965.09 862.946 1965.41 862.399 1965.65 861.852 1965.88 861.274 1966 860.664 1966 860.036 1966 859.453 1965.88 858.915 1965.65 858.378 1965.41 857.907 1965.09 857.503 1964.69 857.1 1964.28 856.782 1963.81 856.549 1963.27 856.315 1962.73 856.199 1962.15 856.199 1961.54 856.199 1960.91 856.315 1960.32 856.549 1959.77 856.782 1959.22 857.1 1958.74 857.503 1958.32 857.907 1957.91 858.378 1957.59 858.915 1957.35 859.453 1957.12 860.036 1957 860.664 1957ZM882.235 1938.38 894.958 1938.38 894.958 1961.59 903 1961.59 903 1965.51 881.348 1965.51 881.348 1961.59 890.224 1961.59 890.224 1942.27 882.235 1942.27ZM832.61 1938C834.009 1938 835.318 1938.1 836.537 1938.3 837.756 1938.5 838.922 1938.82 840.034 1939.27L840.034 1943.76C838.868 1943.14 837.68 1942.7 836.47 1942.42 835.259 1942.14 834.009 1942 832.718 1942 831.516 1942 830.382 1942.23 829.315 1942.69 828.248 1943.15 827.311 1943.81 826.504 1944.68 825.698 1945.54 825.061 1946.59 824.595 1947.84 824.128 1949.08 823.895 1950.49 823.895 1952.05 823.895 1955.33 824.689 1957.79 826.276 1959.42 827.863 1961.05 830.064 1961.86 832.879 1961.86 834.152 1961.86 835.385 1961.72 836.577 1961.43 837.77 1961.14 838.922 1960.71 840.034 1960.14L840.034 1964.51C838.814 1964.98 837.564 1965.33 836.282 1965.55 835 1965.78 833.677 1965.89 832.314 1965.89 828.046 1965.89 824.761 1964.73 822.456 1962.41 820.152 1960.08 819 1956.68 819 1952.22 819 1950.07 819.332 1948.13 819.995 1946.38 820.659 1944.63 821.591 1943.14 822.793 1941.89 823.994 1940.65 825.429 1939.69 827.096 1939.01 828.764 1938.34 830.602 1938 832.61 1938ZM891.864 1927C892.385 1927 892.869 1927.09 893.317 1927.28 893.765 1927.47 894.155 1927.74 894.487 1928.08 894.819 1928.42 895.079 1928.82 895.267 1929.26 895.455 1929.7 895.549 1930.18 895.549 1930.7 895.549 1931.21 895.455 1931.68 895.267 1932.14 895.079 1932.59 894.819 1932.98 894.487 1933.32 894.155 1933.67 893.765 1933.93 893.317 1934.12 892.869 1934.31 892.385 1934.41 891.864 1934.41 891.345 1934.41 890.86 1934.31 890.412 1934.12 889.964 1933.93 889.574 1933.67 889.242 1933.32 888.91 1932.98 888.65 1932.59 888.462 1932.14 888.274 1931.68 888.18 1931.21 888.18 1930.7 888.18 1930.18 888.274 1929.7 888.462 1929.26 888.65 1928.82 888.91 1928.42 889.242 1928.08 889.574 1927.74 889.964 1927.47 890.412 1927.28 890.86 1927.09 891.345 1927 891.864 1927Z" fill="#FFC000" fill-rule="evenodd" fill-opacity="0.6"/>
    
    <path d="M999.669 1888C1000.28 1888 1000.86 1888.12 1001.4 1888.35 1001.95 1888.59 1002.43 1888.91 1002.83 1889.32 1003.23 1889.74 1003.55 1890.22 1003.78 1890.77 1004.02 1891.32 1004.13 1891.91 1004.13 1892.54 1004.13 1893.15 1004.02 1893.73 1003.78 1894.27 1003.55 1894.81 1003.23 1895.28 1002.83 1895.69 1002.43 1896.09 1001.95 1896.41 1001.4 1896.65 1000.86 1896.88 1000.28 1897 999.669 1897 999.041 1897 998.459 1896.88 997.921 1896.65 997.382 1896.41 996.912 1896.09 996.508 1895.69 996.105 1895.28 995.786 1894.81 995.553 1894.27 995.32 1893.73 995.204 1893.15 995.204 1892.54 995.204 1891.91 995.32 1891.32 995.553 1890.77 995.786 1890.22 996.105 1889.74 996.508 1889.32 996.912 1888.91 997.382 1888.59 997.921 1888.35 998.459 1888.12 999.041 1888 999.669 1888ZM1052.23 1869.38 1064.96 1869.38 1064.96 1892.59 1073 1892.59 1073 1896.51 1051.35 1896.51 1051.35 1892.59 1060.22 1892.59 1060.22 1873.27 1052.23 1873.27ZM1021.24 1869.38 1033.97 1869.38 1033.97 1892.59 1042.01 1892.59 1042.01 1896.51 1020.36 1896.51 1020.36 1892.59 1029.23 1892.59 1029.23 1873.27 1021.24 1873.27ZM971.612 1869C973.011 1869 974.32 1869.1 975.539 1869.3 976.759 1869.5 977.924 1869.82 979.036 1870.27L979.036 1874.76C977.871 1874.14 976.683 1873.7 975.472 1873.42 974.261 1873.14 973.011 1873 971.719 1873 970.518 1873 969.384 1873.23 968.316 1873.69 967.249 1874.15 966.312 1874.81 965.505 1875.68 964.698 1876.54 964.062 1877.59 963.595 1878.84 963.129 1880.08 962.896 1881.49 962.896 1883.05 962.896 1886.33 963.69 1888.79 965.277 1890.42 966.864 1892.05 969.065 1892.87 971.881 1892.87 973.154 1892.87 974.387 1892.72 975.58 1892.43 976.772 1892.14 977.924 1891.71 979.036 1891.14L979.036 1895.51C977.817 1895.98 976.566 1896.33 975.284 1896.55 974.001 1896.78 972.679 1896.89 971.316 1896.89 967.048 1896.89 963.761 1895.73 961.457 1893.41 959.152 1891.08 958 1887.68 958 1883.22 958 1881.07 958.332 1879.13 958.995 1877.38 959.659 1875.63 960.592 1874.14 961.793 1872.89 962.995 1871.65 964.429 1870.69 966.097 1870.01 967.765 1869.34 969.603 1869 971.612 1869ZM1061.86 1858C1062.38 1858 1062.87 1858.09 1063.32 1858.28 1063.76 1858.47 1064.15 1858.74 1064.49 1859.08 1064.82 1859.42 1065.08 1859.82 1065.27 1860.26 1065.45 1860.7 1065.55 1861.18 1065.55 1861.7 1065.55 1862.21 1065.45 1862.68 1065.27 1863.13 1065.08 1863.59 1064.82 1863.98 1064.49 1864.32 1064.15 1864.67 1063.76 1864.93 1063.32 1865.12 1062.87 1865.31 1062.38 1865.41 1061.86 1865.41 1061.34 1865.41 1060.86 1865.31 1060.41 1865.12 1059.96 1864.93 1059.57 1864.67 1059.24 1864.32 1058.91 1863.98 1058.65 1863.59 1058.46 1863.13 1058.27 1862.68 1058.18 1862.21 1058.18 1861.7 1058.18 1861.18 1058.27 1860.7 1058.46 1860.26 1058.65 1859.82 1058.91 1859.42 1059.24 1859.08 1059.57 1858.74 1059.96 1858.47 1060.41 1858.28 1060.86 1858.09 1061.34 1858 1061.86 1858ZM1030.87 1858C1031.39 1858 1031.88 1858.09 1032.33 1858.28 1032.77 1858.47 1033.16 1858.74 1033.5 1859.08 1033.83 1859.42 1034.09 1859.82 1034.28 1860.26 1034.46 1860.7 1034.56 1861.18 1034.56 1861.7 1034.56 1862.21 1034.46 1862.68 1034.28 1863.13 1034.09 1863.59 1033.83 1863.98 1033.5 1864.32 1033.16 1864.67 1032.77 1864.93 1032.33 1865.12 1031.88 1865.31 1031.39 1865.41 1030.87 1865.41 1030.35 1865.41 1029.87 1865.31 1029.42 1865.12 1028.97 1864.93 1028.58 1864.67 1028.25 1864.32 1027.92 1863.98 1027.66 1863.59 1027.47 1863.13 1027.28 1862.68 1027.19 1862.21 1027.19 1861.7 1027.19 1861.18 1027.28 1860.7 1027.47 1860.26 1027.66 1859.82 1027.92 1859.42 1028.25 1859.08 1028.58 1858.74 1028.97 1858.47 1029.42 1858.28 1029.87 1858.09 1030.35 1858 1030.87 1858Z" fill="#FFC000" fill-rule="evenodd" fill-opacity="0.6"/>
    
    <path d="M1138.39 1819C1138.99 1819 1139.57 1819.12 1140.11 1819.35 1140.65 1819.59 1141.13 1819.91 1141.53 1820.32 1141.93 1820.74 1142.24 1821.22 1142.47 1821.77 1142.71 1822.32 1142.82 1822.91 1142.82 1823.54 1142.82 1824.15 1142.71 1824.73 1142.47 1825.27 1142.24 1825.81 1141.93 1826.28 1141.53 1826.69 1141.13 1827.09 1140.65 1827.41 1140.11 1827.65 1139.57 1827.88 1138.99 1828 1138.39 1828 1137.76 1828 1137.18 1827.88 1136.65 1827.65 1136.12 1827.41 1135.65 1827.09 1135.25 1826.69 1134.85 1826.28 1134.53 1825.81 1134.3 1825.27 1134.07 1824.73 1133.95 1824.15 1133.95 1823.54 1133.95 1822.91 1134.07 1822.32 1134.3 1821.77 1134.53 1821.22 1134.85 1820.74 1135.25 1820.32 1135.65 1819.91 1136.12 1819.59 1136.65 1819.35 1137.18 1819.12 1137.76 1819 1138.39 1819ZM1221.37 1800.38 1234.01 1800.38 1234.01 1823.59 1242 1823.59 1242 1827.51 1220.49 1827.51 1220.49 1823.59 1229.31 1823.59 1229.31 1804.27 1221.37 1804.27ZM1190.59 1800.38 1203.23 1800.38 1203.23 1823.59 1211.22 1823.59 1211.22 1827.51 1189.71 1827.51 1189.71 1823.59 1198.53 1823.59 1198.53 1804.27 1190.59 1804.27ZM1159.81 1800.38 1172.45 1800.38 1172.45 1823.59 1180.44 1823.59 1180.44 1827.51 1158.93 1827.51 1158.93 1823.59 1167.75 1823.59 1167.75 1804.27 1159.81 1804.27ZM1110.52 1800C1111.91 1800 1113.21 1800.1 1114.42 1800.3 1115.63 1800.5 1116.79 1800.82 1117.89 1801.27L1117.89 1805.76C1116.74 1805.14 1115.56 1804.7 1114.35 1804.42 1113.15 1804.14 1111.91 1804 1110.63 1804 1109.43 1804 1108.31 1804.23 1107.25 1804.69 1106.19 1805.15 1105.26 1805.81 1104.45 1806.68 1103.65 1807.54 1103.02 1808.59 1102.56 1809.84 1102.09 1811.08 1101.86 1812.49 1101.86 1814.05 1101.86 1817.33 1102.65 1819.79 1104.23 1821.42 1105.8 1823.05 1107.99 1823.86 1110.79 1823.86 1112.05 1823.86 1113.28 1823.72 1114.46 1823.43 1115.64 1823.14 1116.79 1822.71 1117.89 1822.14L1117.89 1826.51C1116.68 1826.98 1115.44 1827.33 1114.17 1827.55 1112.89 1827.78 1111.58 1827.89 1110.23 1827.89 1105.99 1827.89 1102.72 1826.73 1100.43 1824.41 1098.14 1822.08 1097 1818.68 1097 1814.22 1097 1812.07 1097.33 1810.13 1097.99 1808.38 1098.65 1806.63 1099.57 1805.14 1100.77 1803.89 1101.96 1802.65 1103.39 1801.69 1105.04 1801.01 1106.7 1800.34 1108.52 1800 1110.52 1800ZM1230.94 1789C1231.46 1789 1231.94 1789.09 1232.38 1789.28 1232.83 1789.47 1233.21 1789.74 1233.54 1790.08 1233.87 1790.42 1234.13 1790.82 1234.32 1791.26 1234.51 1791.7 1234.6 1792.18 1234.6 1792.7 1234.6 1793.21 1234.51 1793.68 1234.32 1794.13 1234.13 1794.59 1233.87 1794.98 1233.54 1795.32 1233.21 1795.67 1232.83 1795.93 1232.38 1796.12 1231.94 1796.31 1231.46 1796.41 1230.94 1796.41 1230.42 1796.41 1229.94 1796.31 1229.5 1796.12 1229.05 1795.93 1228.66 1795.67 1228.33 1795.32 1228 1794.98 1227.75 1794.59 1227.56 1794.13 1227.37 1793.68 1227.28 1793.21 1227.28 1792.7 1227.28 1792.18 1227.37 1791.7 1227.56 1791.26 1227.75 1790.82 1228 1790.42 1228.33 1790.08 1228.66 1789.74 1229.05 1789.47 1229.5 1789.28 1229.94 1789.09 1230.42 1789 1230.94 1789ZM1200.16 1789C1200.68 1789 1201.16 1789.09 1201.6 1789.28 1202.05 1789.47 1202.43 1789.74 1202.76 1790.08 1203.09 1790.42 1203.35 1790.82 1203.54 1791.26 1203.73 1791.7 1203.82 1792.18 1203.82 1792.7 1203.82 1793.21 1203.73 1793.68 1203.54 1794.13 1203.35 1794.59 1203.09 1794.98 1202.76 1795.32 1202.43 1795.67 1202.05 1795.93 1201.6 1796.12 1201.16 1796.31 1200.68 1796.41 1200.16 1796.41 1199.64 1796.41 1199.16 1796.31 1198.72 1796.12 1198.27 1795.93 1197.88 1795.67 1197.55 1795.32 1197.22 1794.98 1196.97 1794.59 1196.78 1794.13 1196.59 1793.68 1196.5 1793.21 1196.5 1792.7 1196.5 1792.18 1196.59 1791.7 1196.78 1791.26 1196.97 1790.82 1197.22 1790.42 1197.55 1790.08 1197.88 1789.74 1198.27 1789.47 1198.72 1789.28 1199.16 1789.09 1199.64 1789 1200.16 1789ZM1169.38 1789C1169.9 1789 1170.38 1789.09 1170.82 1789.28 1171.27 1789.47 1171.66 1789.74 1171.98 1790.08 1172.31 1790.42 1172.57 1790.82 1172.76 1791.26 1172.95 1791.7 1173.04 1792.18 1173.04 1792.7 1173.04 1793.21 1172.95 1793.68 1172.76 1794.13 1172.57 1794.59 1172.31 1794.98 1171.98 1795.32 1171.66 1795.67 1171.27 1795.93 1170.82 1796.12 1170.38 1796.31 1169.9 1796.41 1169.38 1796.41 1168.86 1796.41 1168.38 1796.31 1167.94 1796.12 1167.49 1795.93 1167.1 1795.67 1166.77 1795.32 1166.45 1794.98 1166.19 1794.59 1166 1794.13 1165.81 1793.68 1165.72 1793.21 1165.72 1792.7 1165.72 1792.18 1165.81 1791.7 1166 1791.26 1166.19 1790.82 1166.45 1790.42 1166.77 1790.08 1167.1 1789.74 1167.49 1789.47 1167.94 1789.28 1168.38 1789.09 1168.86 1789 1169.38 1789Z" fill="#FFC000" fill-rule="evenodd" fill-opacity="0.6"/>
    
    <path d="M1308.65 1750C1309.26 1750 1309.84 1750.12 1310.39 1750.35 1310.93 1750.59 1311.41 1750.91 1311.81 1751.32 1312.22 1751.74 1312.53 1752.22 1312.77 1752.77 1313 1753.32 1313.12 1753.91 1313.12 1754.54 1313.12 1755.15 1313 1755.73 1312.77 1756.27 1312.53 1756.81 1312.22 1757.28 1311.81 1757.69 1311.41 1758.09 1310.93 1758.41 1310.39 1758.65 1309.84 1758.88 1309.26 1759 1308.65 1759 1308.03 1759 1307.44 1758.88 1306.91 1758.65 1306.37 1758.41 1305.9 1758.09 1305.49 1757.69 1305.09 1757.28 1304.77 1756.81 1304.54 1756.27 1304.31 1755.73 1304.19 1755.15 1304.19 1754.54 1304.19 1753.91 1304.31 1753.32 1304.54 1752.77 1304.77 1752.22 1305.09 1751.74 1305.49 1751.32 1305.9 1750.91 1306.37 1750.59 1306.91 1750.35 1307.44 1750.12 1308.03 1750 1308.65 1750ZM1357.46 1731.38 1362.78 1731.38 1369.4 1749.32 1370.82 1753.7 1372.3 1749.22 1378.86 1731.38 1384 1731.38 1373.41 1758.51 1368.03 1758.51ZM1330.22 1731.38 1342.94 1731.38 1342.94 1754.59 1350.98 1754.59 1350.98 1758.51 1329.33 1758.51 1329.33 1754.59 1338.21 1754.59 1338.21 1735.27 1330.22 1735.27ZM1280.61 1731C1282 1731 1283.31 1731.1 1284.53 1731.3 1285.75 1731.5 1286.92 1731.82 1288.03 1732.27L1288.03 1736.76C1286.86 1736.14 1285.68 1735.7 1284.47 1735.42 1283.26 1735.14 1282 1735 1280.71 1735 1279.51 1735 1278.38 1735.23 1277.31 1735.69 1276.25 1736.15 1275.31 1736.81 1274.5 1737.68 1273.7 1738.54 1273.06 1739.59 1272.59 1740.84 1272.13 1742.08 1271.89 1743.49 1271.89 1745.05 1271.89 1748.33 1272.69 1750.79 1274.27 1752.42 1275.86 1754.05 1278.06 1754.86 1280.88 1754.86 1282.15 1754.86 1283.38 1754.72 1284.57 1754.43 1285.77 1754.14 1286.92 1753.71 1288.03 1753.14L1288.03 1757.51C1286.81 1757.98 1285.56 1758.33 1284.28 1758.55 1283 1758.78 1281.67 1758.89 1280.31 1758.89 1276.04 1758.89 1272.76 1757.73 1270.46 1755.41 1268.15 1753.08 1267 1749.68 1267 1745.22 1267 1743.07 1267.33 1741.13 1267.99 1739.38 1268.66 1737.63 1269.59 1736.14 1270.79 1734.89 1271.99 1733.65 1273.43 1732.69 1275.09 1732.01 1276.76 1731.34 1278.6 1731 1280.61 1731ZM1339.85 1720C1340.37 1720 1340.85 1720.09 1341.3 1720.28 1341.75 1720.47 1342.14 1720.74 1342.47 1721.08 1342.8 1721.42 1343.06 1721.82 1343.25 1722.26 1343.44 1722.7 1343.53 1723.18 1343.53 1723.7 1343.53 1724.21 1343.44 1724.68 1343.25 1725.14 1343.06 1725.59 1342.8 1725.98 1342.47 1726.32 1342.14 1726.67 1341.75 1726.93 1341.3 1727.12 1340.85 1727.31 1340.37 1727.41 1339.85 1727.41 1339.33 1727.41 1338.84 1727.31 1338.39 1727.12 1337.95 1726.93 1337.56 1726.67 1337.22 1726.32 1336.89 1725.98 1336.63 1725.59 1336.44 1725.14 1336.26 1724.68 1336.16 1724.21 1336.16 1723.7 1336.16 1723.18 1336.26 1722.7 1336.44 1722.26 1336.63 1721.82 1336.89 1721.42 1337.22 1721.08 1337.56 1720.74 1337.95 1720.47 1338.39 1720.28 1338.84 1720.09 1339.33 1720 1339.85 1720Z" fill="#FFC000" fill-rule="evenodd" fill-opacity="0.6"/>
    
    <path 

        class="flux" 
      
      d="M1314.5 1238.5 2814.36 1238.5" stroke="#FF0000" stroke-width="4.58333" stroke-miterlimit="8" fill="none" fill-rule="evenodd"/>
    
    <path 
      
        class="flux"

      d="M424.5 1240.5 710.287 1240.5" stroke="#FF0000" stroke-width="4.58333" stroke-miterlimit="8" fill="none" fill-rule="evenodd"/>
    
    <path 
      
        class="flux reverse"

      d="M870.5 1159.5C891.212 1126.99 1018 1006.2 1137.5 1151.51" stroke="#FF0000" stroke-width="4.58333" stroke-miterlimit="8" fill="none" fill-rule="evenodd"/>
    
    <path 
      
        class="flux"

      d="M906.5 1194.5C921.549 1170.33 1013.67 1080.51 1100.5 1188.56" stroke="#FF0000" stroke-width="4.58333" stroke-miterlimit="8" fill="none" fill-rule="evenodd"/>
    
    <path 
      
        class="flux"

      d="M726.5 1184.5C662.309 1136.95 583.137 1045.72 553.5 908.5" stroke="#FF0000" stroke-width="4.58333" stroke-miterlimit="8" fill="none" fill-rule="evenodd"/>
    
    <path 
      
        class="flux"

      d="M713.5 1210.5C683.827 1194.49 573.964 1181.34 447.5 1078.5" stroke="#FF0000" stroke-width="4.58333" stroke-miterlimit="8" fill="none" fill-rule="evenodd"/>
    
    <path 
      
        class="flux"

      d="M2432.5 588.5C2172.44 845.562 1726.51 1166.59 1309.5 1205.5" stroke="#FF0000" stroke-width="4.58333" stroke-miterlimit="8" fill="none" fill-rule="evenodd"/>
    
    <path 
      
        class="flux"

      d="M1548.5 568.5C1548.11 688.567 1517.29 1045.09 1303.5 1182.5" stroke="#FF0000" stroke-width="4.58333" stroke-miterlimit="8" fill="none" fill-rule="evenodd"/>
    
    <g><g><g>
      
      <path d="M1200.5 1162.31C1157.86 1162.3 1123.28 1196.86 1123.27 1239.5 1123.26 1282.14 1157.81 1316.72 1200.46 1316.73 1243.1 1316.74 1277.68 1282.19 1277.69 1239.54 1277.69 1239.54 1277.69 1239.53 1277.69 1239.52 1277.71 1196.9 1243.18 1162.33 1200.56 1162.31 1200.54 1162.31 1200.52 1162.31 1200.5 1162.31ZM1200.5 1312.67C1160.1 1312.68 1127.34 1279.94 1127.33 1239.54 1127.32 1199.14 1160.06 1166.39 1200.46 1166.37 1240.85 1166.36 1273.61 1199.1 1273.62 1239.5 1273.62 1239.51 1273.62 1239.52 1273.62 1239.53 1273.58 1279.9 1240.87 1312.62 1200.5 1312.67Z" stroke="#FFC000" stroke-width="9.28571" fill="#FFC000"/>
      
      <path d="M1163.94 1237.47 1235.03 1237.47 1235.03 1241.53 1163.94 1241.53Z" stroke="#FFC000" stroke-width="9.28571" fill="#FFC000"/>
    
    </g></g></g>
    
    <g><g><g>
      
      <path d="M812.5 1162.31C769.858 1162.3 735.28 1196.86 735.268 1239.5 735.255 1282.14 769.813 1316.72 812.455 1316.73 855.097 1316.74 889.675 1282.19 889.687 1239.54 889.687 1239.54 889.687 1239.53 889.687 1239.52 889.71 1196.9 855.179 1162.33 812.561 1162.31 812.541 1162.31 812.52 1162.31 812.5 1162.31ZM812.5 1312.67C772.102 1312.68 739.343 1279.94 739.33 1239.54 739.318 1199.14 772.057 1166.39 812.455 1166.37 852.853 1166.36 885.613 1199.1 885.625 1239.5 885.625 1239.51 885.625 1239.52 885.625 1239.53 885.585 1279.9 852.873 1312.62 812.5 1312.67Z" stroke="#FFC000" stroke-width="9.28571" fill="#FFC000"/>
      
      <path d="M813.516 1203.98 809.453 1203.98 809.453 1237.47 775.938 1237.47 775.938 1241.53 809.453 1241.53 809.453 1275.08 813.516 1275.08 813.516 1241.53 847.031 1241.53 847.031 1237.47 813.516 1237.47 813.516 1203.98Z" stroke="#FFC000" stroke-width="9.28571" fill="#FFC000"/>
    
    </g></g></g>
    
    <path 
      
        class="flux"

      d="M78 267C45.4948 246.288-75.3037 119.501 70.0095 0" stroke="#FFFFFF" stroke-width="4.58333" stroke-miterlimit="8" fill="none" fill-rule="evenodd" transform="matrix(-1.83697e-16 -1 -1 1.83697e-16 1137.5 1395.5)"/>
    
    <path 
      
        class="flux"

      d="M58.0001 194C33.8295 178.951-55.9951 86.8281 52.0584 0" stroke="#FFFFFF" stroke-width="4.58333" stroke-miterlimit="8" fill="none" fill-rule="evenodd" transform="matrix(-1.83697e-16 -1 -1 1.83697e-16 1100.5 1341.5)"/>
    
    <path 
      
        class="flux"

      d="M173 276C108.809 228.446 29.6369 137.221 0 0" stroke="#FFFFFF" stroke-width="4.58333" stroke-miterlimit="8" fill="none" fill-rule="evenodd" transform="matrix(1 0 0 -1 553.5 1569.5)"/>
    
    <path 
      
        class="flux"

      d="M266 132C236.326 115.994 126.464 102.836 0 0" stroke="#FFFFFF" stroke-width="4.58333" stroke-miterlimit="8" fill="none" fill-rule="evenodd" transform="matrix(1 0 0 -1 447.5 1398.5)"/>
    
    <path 
      
        class="flux"

      d="M616 1123C359.355 862.939 38.8475 417.015 0 0" stroke="#FFFFFF" stroke-width="4.58333" stroke-miterlimit="8" fill="none" fill-rule="evenodd" transform="matrix(6.12323e-17 1 1 -6.12323e-17 1309.5 1272.5)"/>
    
    <path 
      
        class="flux"

      d="M614 245C493.933 244.609 137.414 213.792 0 0" stroke="#FFFFFF" stroke-width="4.58333" stroke-miterlimit="8" fill="none" fill-rule="evenodd" transform="matrix(6.12323e-17 1 1 -6.12323e-17 1303.5 1295.5)"/>
    
    <path d="M1532 591 1548 564 1564 591Z" fill="#FFC000" fill-rule="evenodd"/>
    
    <path d="M2404.69 592.797 2435.24 584.881 2426.94 615.323Z" fill="#FFC000" fill-rule="evenodd"/>
    
    <path d="M2793 1222 2820 1237.5 2793 1253Z" fill="#FFC000" fill-rule="evenodd"/>
    
    <path d="M895.643 1151.9 866.089 1162.95 871.175 1131.81Z" fill="#FFC000" fill-rule="evenodd"/>
    
    <path d="M932.585 1189.65 901.893 1196.97 910.783 1166.7Z" fill="#FFC000" fill-rule="evenodd"/>
    
    <path d="M686 1224 714 1240 686 1256Z" fill="#FFC000" fill-rule="evenodd"/>
    
    <path d="M696.637 1188.05 717.389 1211.81 686.456 1218.03Z" fill="#FFC000" fill-rule="evenodd"/>
    
    <path d="M717.698 1157.98 729.947 1187.06 698.626 1183.25Z" fill="#FFC000" fill-rule="evenodd"/>
    
    <path d="M0 26.9998 16 0 32 26.9998Z" fill="#FFC000" fill-rule="evenodd" transform="matrix(1 0 0 -1 1532 1913)"/>
    
    <path d="M0 27.2928 15.8298 0 31.6596 27.2928Z" fill="#FFC000" fill-rule="evenodd" transform="matrix(0.702707 -0.71148 -0.71148 -0.702707 2424.11 1903.86)"/>
    
    <path d="M0 27.2928 15.8298 0 31.6596 27.2928Z" fill="#FFC000" fill-rule="evenodd" transform="matrix(-0.772855 0.634583 0.634583 0.772855 879.142 1303.66)"/>
    
    <path d="M0 27.2928 15.8298 0 31.6596 27.2928Z" fill="#FFC000" fill-rule="evenodd" transform="matrix(-0.688629 0.725114 0.725114 0.688629 912.794 1269.03)"/>
    
    <path d="M0 27.2928 15.8298 0 31.6596 27.2928Z" fill="#FFC000" fill-rule="evenodd" transform="matrix(-0.321579 -0.946883 -0.946883 0.321579 722.48 1280.66)"/>
    
    <path d="M0 27.2928 15.8298 0 31.6596 27.2928Z" fill="#FFC000" fill-rule="evenodd" transform="matrix(-0.602418 -0.79818 -0.79818 0.602418 739.483 1303.05)"/>
  
  </g>

</svg>
