<svg width="2398" height="1426" xmlns="http://www.w3.org/2000/svg" xmlns:xlink="http://www.w3.org/1999/xlink" xml:space="preserve" overflow="hidden">

<style>
  .flux {
    stroke-dasharray: 28 20;
    animation: flux-move 6s linear infinite;
  }

  @keyframes flux-move {
    from { stroke-dashoffset: 0; }
    to   { stroke-dashoffset: -120; }
  }
</style>

<g transform="translate(-445 -540)"><path d="M1167.5 1752.5 1167.5 1534.53 1275.5 1452.97 1275.5 1403.5" stroke="#FFC000" stroke-width="6.875" stroke-miterlimit="8" stroke-opacity="0.2" fill="none" fill-rule="evenodd"/><path d="M1013.5 1826.5 1013.5 1533.89 1166.5 1418.18 1166.5 1370.5" stroke="#FFC000" stroke-width="6.875" stroke-miterlimit="8" stroke-opacity="0.2" fill="none" fill-rule="evenodd"/><path d="M861.5 1902.5 861.5 1532.68 1005.5 1423.5" stroke="#FFC000" stroke-width="6.875" stroke-miterlimit="8" stroke-opacity="0.2" fill="none" fill-rule="evenodd"/><path d="M2643 1239.73C2643 1320.63 2544.92 1386.22 2423.94 1386.22L2423.86 1386.21 2423.82 1386.22 1853.31 1386.22 1839.43 1397.93C1795.42 1436.61 1727.78 1507.76 1702.82 1592.94 1628.37 1671.52 1593.75 1778.92 1575.06 1785.47 1566.92 1790.27 1543.7 1793.11 1520.76 1793 1497.82 1792.89 1475.17 1789.83 1468.16 1782.85 1462.19 1775.48 1427.7 1707.68 1392.49 1628.01L1381.94 1603.27 1320.17 1603.27C1307.25 1603.27 1296.78 1592.8 1296.78 1579.89L1296.78 1441.84C1296.78 1432.16 1302.67 1423.85 1311.06 1420.3L1316.02 1419.3 1312.47 1401.95 1310.85 1386.22 1281.69 1386.22C1276.29 1386.22 1271.92 1381.17 1271.92 1374.95L1271.92 1358.41 1244.58 1358.89C1197.55 1358.89 1151.65 1358.06 1107.31 1356.47L1050.61 1353.39 1050.61 1398.9C1050.61 1409.7 1041.85 1418.46 1031.05 1418.46 1020.25 1418.46 1011.49 1409.7 1011.49 1398.9L1011.49 1351.27 979.452 1349.53 969 1348.65 969 1130.82 979.452 1129.94 1011.49 1128.2 1011.49 1078.77C1011.49 1067.96 1020.25 1059.21 1031.05 1059.21 1041.85 1059.21 1050.61 1067.96 1050.61 1078.77L1050.61 1126.07 1107.31 1123C1151.65 1121.41 1197.55 1120.57 1244.58 1120.57L1271.92 1121.06 1271.92 1104.52C1271.92 1098.3 1276.29 1093.25 1281.69 1093.25L1310.9 1093.25 1312.47 1078.05 1316.02 1060.7 1311.06 1059.7C1302.67 1056.15 1296.78 1047.84 1296.78 1038.16L1296.78 900.11C1296.78 887.196 1307.25 876.728 1320.17 876.728L1381.94 876.728 1392.49 851.989C1427.7 772.319 1462.19 704.52 1468.16 697.153 1482.18 683.183 1558.78 684.929 1575.06 694.533 1593.75 701.082 1628.37 808.476 1702.82 887.057 1727.78 972.241 1795.42 1043.39 1839.43 1082.07L1852.68 1093.25 2423.82 1093.25 2423.86 1093.26 2423.94 1093.25C2544.92 1093.25 2643 1158.83 2643 1239.73Z" fill="#B88C00" fill-rule="evenodd" fill-opacity="0.2"/><path d="M812.5 667.5 812.5 1113.5" stroke="#FFC000" stroke-width="6.875" stroke-miterlimit="8" stroke-opacity="0.2" fill="none" fill-rule="evenodd"/><path d="M1194.5 667.5 1194.5 1070.26" stroke="#FFC000" stroke-width="6.875" stroke-miterlimit="8" stroke-opacity="0.2" fill="none" fill-rule="evenodd"/><path d="M0 0 0.000360892 75.4698" stroke="#FFC000" stroke-width="6.875" stroke-miterlimit="8" stroke-opacity="0.2" fill="none" fill-rule="evenodd" transform="matrix(1 0 0 -1 1320.5 1692.97)"/><path d="M1192.73 604.48C1192.14 604.48 1191.54 604.573 1190.94 604.76 1190.33 604.947 1189.7 605.258 1189.05 605.693 1188.39 606.129 1187.71 606.707 1186.98 607.427 1186.26 608.147 1185.49 609.04 1184.66 610.107L1184.66 623.093C1185.58 623.449 1186.51 623.729 1187.45 623.933 1188.4 624.138 1189.3 624.24 1190.16 624.24 1191.23 624.24 1192.26 624.071 1193.23 623.733 1194.2 623.396 1195.06 622.831 1195.8 622.04 1196.54 621.249 1197.13 620.2 1197.57 618.893 1198.01 617.587 1198.23 615.964 1198.23 614.027 1198.23 612.622 1198.13 611.333 1197.92 610.16 1197.71 608.987 1197.39 607.982 1196.94 607.147 1196.5 606.311 1195.92 605.658 1195.23 605.187 1194.53 604.716 1193.7 604.48 1192.73 604.48ZM1180 590 1184.66 590 1184.66 600.373 1184.45 605.333C1185.79 603.538 1187.22 602.271 1188.75 601.534 1190.28 600.796 1191.92 600.427 1193.67 600.427 1195.21 600.427 1196.56 600.747 1197.72 601.387 1198.88 602.027 1199.85 602.929 1200.64 604.093 1201.43 605.258 1202.02 606.662 1202.41 608.307 1202.8 609.951 1203 611.787 1203 613.813 1203 616.035 1202.69 618.022 1202.08 619.773 1201.46 621.524 1200.58 623.009 1199.45 624.227 1198.31 625.444 1196.93 626.378 1195.31 627.026 1193.68 627.675 1191.85 628 1189.81 628 1188.22 628 1186.59 627.849 1184.93 627.547 1183.27 627.244 1181.63 626.764 1180 626.107Z" fill="#FFC000" fill-rule="evenodd" fill-opacity="0.6"/><path d="M809.478 612.212C808.327 612.212 807.335 612.328 806.502 612.562 805.67 612.795 804.988 613.127 804.456 613.558 803.925 613.989 803.531 614.505 803.274 615.106 803.017 615.707 802.889 616.385 802.889 617.138 802.889 617.659 802.969 618.157 803.128 618.633 803.287 619.108 803.544 619.53 803.898 619.898 804.253 620.266 804.713 620.558 805.28 620.773 805.847 620.988 806.538 621.096 807.353 621.096 808.415 621.096 809.633 620.769 811.006 620.114 812.379 619.458 813.827 618.422 815.35 617.004L815.35 612.212ZM809.584 597C811.196 597 812.649 597.18 813.942 597.539 815.235 597.898 816.329 598.445 817.223 599.181 818.118 599.917 818.804 600.841 819.282 601.954 819.761 603.067 820 604.377 820 605.885L820 624.516 815.855 624.516 815.749 620.881C814.296 622.335 812.822 623.385 811.325 624.031 809.828 624.677 808.256 625 806.608 625 805.085 625 803.783 624.802 802.703 624.408 801.622 624.013 800.732 623.47 800.033 622.779 799.333 622.088 798.819 621.276 798.491 620.342 798.164 619.409 798 618.395 798 617.3 798 614.59 798.996 612.467 800.989 610.933 802.982 609.398 805.926 608.631 809.823 608.631L815.35 608.631 815.35 606.262C815.35 604.664 814.845 603.385 813.836 602.425 812.826 601.465 811.285 600.985 809.212 600.985 807.707 600.985 806.223 601.155 804.762 601.497 803.301 601.837 801.791 602.322 800.232 602.95L800.232 598.723C800.816 598.508 801.467 598.297 802.185 598.091 802.902 597.884 803.659 597.7 804.456 597.539 805.253 597.377 806.086 597.247 806.954 597.148 807.822 597.05 808.699 597 809.584 597Z" fill="#FFC000" fill-rule="evenodd" fill-opacity="0.6"/><path d="M860.664 1957C861.274 1957 861.852 1957.12 862.399 1957.35 862.946 1957.59 863.421 1957.91 863.824 1958.32 864.228 1958.74 864.546 1959.22 864.779 1959.77 865.012 1960.32 865.129 1960.91 865.129 1961.54 865.129 1962.15 865.012 1962.73 864.779 1963.27 864.546 1963.81 864.228 1964.28 863.824 1964.69 863.421 1965.09 862.946 1965.41 862.399 1965.65 861.852 1965.88 861.274 1966 860.664 1966 860.036 1966 859.453 1965.88 858.915 1965.65 858.378 1965.41 857.907 1965.09 857.503 1964.69 857.1 1964.28 856.782 1963.81 856.549 1963.27 856.315 1962.73 856.199 1962.15 856.199 1961.54 856.199 1960.91 856.315 1960.32 856.549 1959.77 856.782 1959.22 857.1 1958.74 857.503 1958.32 857.907 1957.91 858.378 1957.59 858.915 1957.35 859.453 1957.12 860.036 1957 860.664 1957ZM882.235 1938.38 894.958 1938.38 894.958 1961.59 903 1961.59 903 1965.51 881.348 1965.51 881.348 1961.59 890.224 1961.59 890.224 1942.27 882.235 1942.27ZM832.61 1938C834.009 1938 835.318 1938.1 836.537 1938.3 837.756 1938.5 838.922 1938.82 840.034 1939.27L840.034 1943.76C838.868 1943.14 837.68 1942.7 836.47 1942.42 835.259 1942.14 834.009 1942 832.718 1942 831.516 1942 830.382 1942.23 829.315 1942.69 828.248 1943.15 827.311 1943.81 826.504 1944.68 825.698 1945.54 825.061 1946.59 824.595 1947.84 824.128 1949.08 823.895 1950.49 823.895 1952.05 823.895 1955.33 824.689 1957.79 826.276 1959.42 827.863 1961.05 830.064 1961.86 832.879 1961.86 834.152 1961.86 835.385 1961.72 836.577 1961.43 837.77 1961.14 838.922 1960.71 840.034 1960.14L840.034 1964.51C838.814 1964.98 837.564 1965.33 836.282 1965.55 835 1965.78 833.677 1965.89 832.314 1965.89 828.046 1965.89 824.761 1964.73 822.456 1962.41 820.152 1960.08 819 1956.68 819 1952.22 819 1950.07 819.332 1948.13 819.995 1946.38 820.659 1944.63 821.591 1943.14 822.793 1941.89 823.994 1940.65 825.429 1939.69 827.096 1939.01 828.764 1938.34 830.602 1938 832.61 1938ZM891.864 1927C892.385 1927 892.869 1927.09 893.317 1927.28 893.765 1927.47 894.155 1927.74 894.487 1928.08 894.819 1928.42 895.079 1928.82 895.267 1929.26 895.455 1929.7 895.549 1930.18 895.549 1930.7 895.549 1931.21 895.455 1931.68 895.267 1932.14 895.079 1932.59 894.819 1932.98 894.487 1933.32 894.155 1933.67 893.765 1933.93 893.317 1934.12 892.869 1934.31 892.385 1934.41 891.864 1934.41 891.345 1934.41 890.86 1934.31 890.412 1934.12 889.964 1933.93 889.574 1933.67 889.242 1933.32 888.91 1932.98 888.65 1932.59 888.462 1932.14 888.274 1931.68 888.18 1931.21 888.18 1930.7 888.18 1930.18 888.274 1929.7 888.462 1929.26 888.65 1928.82 888.91 1928.42 889.242 1928.08 889.574 1927.74 889.964 1927.47 890.412 1927.28 890.86 1927.09 891.345 1927 891.864 1927Z" fill="#FFC000" fill-rule="evenodd" fill-opacity="0.6"/><path d="M999.669 1888C1000.28 1888 1000.86 1888.12 1001.4 1888.35 1001.95 1888.59 1002.43 1888.91 1002.83 1889.32 1003.23 1889.74 1003.55 1890.22 1003.78 1890.77 1004.02 1891.32 1004.13 1891.91 1004.13 1892.54 1004.13 1893.15 1004.02 1893.73 1003.78 1894.27 1003.55 1894.81 1003.23 1895.28 1002.83 1895.69 1002.43 1896.09 1001.95 1896.41 1001.4 1896.65 1000.86 1896.88 1000.28 1897 999.669 1897 999.041 1897 998.459 1896.88 997.921 1896.65 997.382 1896.41 996.912 1896.09 996.508 1895.69 996.105 1895.28 995.786 1894.81 995.553 1894.27 995.32 1893.73 995.204 1893.15 995.204 1892.54 995.204 1891.91 995.32 1891.32 995.553 1890.77 995.786 1890.22 996.105 1889.74 996.508 1889.32 996.912 1888.91 997.382 1888.59 997.921 1888.35 998.459 1888.12 999.041 1888 999.669 1888ZM1052.23 1869.38 1064.96 1869.38 1064.96 1892.59 1073 1892.59 1073 1896.51 1051.35 1896.51 1051.35 1892.59 1060.22 1892.59 1060.22 1873.27 1052.23 1873.27ZM1021.24 1869.38 1033.97 1869.38 1033.97 1892.59 1042.01 1892.59 1042.01 1896.51 1020.36 1896.51 1020.36 1892.59 1029.23 1892.59 1029.23 1873.27 1021.24 1873.27ZM971.612 1869C973.011 1869 974.32 1869.1 975.539 1869.3 976.759 1869.5 977.924 1869.82 979.036 1870.27L979.036 1874.76C977.871 1874.14 976.683 1873.7 975.472 1873.42 974.261 1873.14 973.011 1873 971.719 1873 970.518 1873 969.384 1873.23 968.316 1873.69 967.249 1874.15 966.312 1874.81 965.505 1875.68 964.698 1876.54 964.062 1877.59 963.595 1878.84 963.129 1880.08 962.896 1881.49 962.896 1883.05 962.896 1886.33 963.69 1888.79 965.277 1890.42 966.864 1892.05 969.065 1892.87 971.881 1892.87 973.154 1892.87 974.387 1892.72 975.58 1892.43 976.772 1892.14 977.924 1891.71 979.036 1891.14L979.036 1895.51C977.817 1895.98 976.566 1896.33 975.284 1896.55 974.001 1896.78 972.679 1896.89 971.316 1896.89 967.048 1896.89 963.761 1895.73 961.457 1893.41 959.152 1891.08 958 1887.68 958 1883.22 958 1881.07 958.332 1879.13 958.995 1877.38 959.659 1875.63 960.592 1874.14 961.793 1872.89 962.995 1871.65 964.429 1870.69 966.097 1870.01 967.765 1869.34 969.603 1869 971.612 1869ZM1061.86 1858C1062.38 1858 1062.87 1858.09 1063.32 1858.28 1063.76 1858.47 1064.15 1858.74 1064.49 1859.08 1064.82 1859.42 1065.08 1859.82 1065.27 1860.26 1065.45 1860.7 1065.55 1861.18 1065.55 1861.7 1065.55 1862.21 1065.45 1862.68 1065.27 1863.13 1065.08 1863.59 1064.82 1863.98 1064.49 1864.32 1064.15 1864.67 1063.76 1864.93 1063.32 1865.12 1062.87 1865.31 1062.38 1865.41 1061.86 1865.41 1061.34 1865.41 1060.86 1865.31 1060.41 1865.12 1059.96 1864.93 1059.57 1864.67 1059.24 1864.32 1058.91 1863.98 1058.65 1863.59 1058.46 1863.13 1058.27 1862.68 1058.18 1862.21 1058.18 1861.7 1058.18 1861.18 1058.27 1860.7 1058.46 1860.26 1058.65 1859.82 1058.91 1859.42 1059.24 1859.08 1059.57 1858.74 1059.96 1858.47 1060.41 1858.28 1060.86 1858.09 1061.34 1858 1061.86 1858ZM1030.87 1858C1031.39 1858 1031.88 1858.09 1032.33 1858.28 1032.77 1858.47 1033.16 1858.74 1033.5 1859.08 1033.83 1859.42 1034.09 1859.82 1034.28 1860.26 1034.46 1860.7 1034.56 1861.18 1034.56 1861.7 1034.56 1862.21 1034.46 1862.68 1034.28 1863.13 1034.09 1863.59 1033.83 1863.98 1033.5 1864.32 1033.16 1864.67 1032.77 1864.93 1032.33 1865.12 1031.88 1865.31 1031.39 1865.41 1030.87 1865.41 1030.35 1865.41 1029.87 1865.31 1029.42 1865.12 1028.97 1864.93 1028.58 1864.67 1028.25 1864.32 1027.92 1863.98 1027.66 1863.59 1027.47 1863.13 1027.28 1862.68 1027.19 1862.21 1027.19 1861.7 1027.19 1861.18 1027.28 1860.7 1027.47 1860.26 1027.66 1859.82 1027.92 1859.42 1028.25 1859.08 1028.58 1858.74 1028.97 1858.47 1029.42 1858.28 1029.87 1858.09 1030.35 1858 1030.87 1858Z" fill="#FFC000" fill-rule="evenodd" fill-opacity="0.6"/><path d="M1138.39 1819C1138.99 1819 1139.57 1819.12 1140.11 1819.35 1140.65 1819.59 1141.13 1819.91 1141.53 1820.32 1141.93 1820.74 1142.24 1821.22 1142.47 1821.77 1142.71 1822.32 1142.82 1822.91 1142.82 1823.54 1142.82 1824.15 1142.71 1824.73 1142.47 1825.27 1142.24 1825.81 1141.93 1826.28 1141.53 1826.69 1141.13 1827.09 1140.65 1827.41 1140.11 1827.65 1139.57 1827.88 1138.99 1828 1138.39 1828 1137.76 1828 1137.18 1827.88 1136.65 1827.65 1136.12 1827.41 1135.65 1827.09 1135.25 1826.69 1134.85 1826.28 1134.53 1825.81 1134.3 1825.27 1134.07 1824.73 1133.95 1824.15 1133.95 1823.54 1133.95 1822.91 1134.07 1822.32 1134.3 1821.77 1134.53 1821.22 1134.85 1820.74 1135.25 1820.32 1135.65 1819.91 1136.12 1819.59 1136.65 1819.35 1137.18 1819.12 1137.76 1819 1138.39 1819ZM1221.37 1800.38 1234.01 1800.38 1234.01 1823.59 1242 1823.59 1242 1827.51 1220.49 1827.51 1220.49 1823.59 1229.31 1823.59 1229.31 1804.27 1221.37 1804.27ZM1190.59 1800.38 1203.23 1800.38 1203.23 1823.59 1211.22 1823.59 1211.22 1827.51 1189.71 1827.51 1189.71 1823.59 1198.53 1823.59 1198.53 1804.27 1190.59 1804.27ZM1159.81 1800.38 1172.45 1800.38 1172.45 1823.59 1180.44 1823.59 1180.44 1827.51 1158.93 1827.51 1158.93 1823.59 1167.75 1823.59 1167.75 1804.27 1159.81 1804.27ZM1110.52 1800C1111.91 1800 1113.21 1800.1 1114.42 1800.3 1115.63 1800.5 1116.79 1800.82 1117.89 1801.27L1117.89 1805.76C1116.74 1805.14 1115.56 1804.7 1114.35 1804.42 1113.15 1804.14 1111.91 1804 1110.63 1804 1109.43 1804 1108.31 1804.23 1107.25 1804.69 1106.19 1805.15 1105.26 1805.81 1104.45 1806.68 1103.65 1807.54 1103.02 1808.59 1102.56 1809.84 1102.09 1811.08 1101.86 1812.49 1101.86 1814.05 1101.86 1817.33 1102.65 1819.79 1104.23 1821.42 1105.8 1823.05 1107.99 1823.86 1110.79 1823.86 1112.05 1823.86 1113.28 1823.72 1114.46 1823.43 1115.64 1823.14 1116.79 1822.71 1117.89 1822.14L1117.89 1826.51C1116.68 1826.98 1115.44 1827.33 1114.17 1827.55 1112.89 1827.78 1111.58 1827.89 1110.23 1827.89 1105.99 1827.89 1102.72 1826.73 1100.43 1824.41 1098.14 1822.08 1097 1818.68 1097 1814.22 1097 1812.07 1097.33 1810.13 1097.99 1808.38 1098.65 1806.63 1099.57 1805.14 1100.77 1803.89 1101.96 1802.65 1103.39 1801.69 1105.04 1801.01 1106.7 1800.34 1108.52 1800 1110.52 1800ZM1230.94 1789C1231.46 1789 1231.94 1789.09 1232.38 1789.28 1232.83 1789.47 1233.21 1789.74 1233.54 1790.08 1233.87 1790.42 1234.13 1790.82 1234.32 1791.26 1234.51 1791.7 1234.6 1792.18 1234.6 1792.7 1234.6 1793.21 1234.51 1793.68 1234.32 1794.13 1234.13 1794.59 1233.87 1794.98 1233.54 1795.32 1233.21 1795.67 1232.83 1795.93 1232.38 1796.12 1231.94 1796.31 1231.46 1796.41 1230.94 1796.41 1230.42 1796.41 1229.94 1796.31 1229.5 1796.12 1229.05 1795.93 1228.66 1795.67 1228.33 1795.32 1228 1794.98 1227.75 1794.59 1227.56 1794.13 1227.37 1793.68 1227.28 1793.21 1227.28 1792.7 1227.28 1792.18 1227.37 1791.7 1227.56 1791.26 1227.75 1790.82 1228 1790.42 1228.33 1790.08 1228.66 1789.74 1229.05 1789.47 1229.5 1789.28 1229.94 1789.09 1230.42 1789 1230.94 1789ZM1200.16 1789C1200.68 1789 1201.16 1789.09 1201.6 1789.28 1202.05 1789.47 1202.43 1789.74 1202.76 1790.08 1203.09 1790.42 1203.35 1790.82 1203.54 1791.26 1203.73 1791.7 1203.82 1792.18 1203.82 1792.7 1203.82 1793.21 1203.73 1793.68 1203.54 1794.13 1203.35 1794.59 1203.09 1794.98 1202.76 1795.32 1202.43 1795.67 1202.05 1795.93 1201.6 1796.12 1201.16 1796.31 1200.68 1796.41 1200.16 1796.41 1199.64 1796.41 1199.16 1796.31 1198.72 1796.12 1198.27 1795.93 1197.88 1795.67 1197.55 1795.32 1197.22 1794.98 1196.97 1794.59 1196.78 1794.13 1196.59 1793.68 1196.5 1793.21 1196.5 1792.7 1196.5 1792.18 1196.59 1791.7 1196.78 1791.26 1196.97 1790.82 1197.22 1790.42 1197.55 1790.08 1197.88 1789.74 1198.27 1789.47 1198.72 1789.28 1199.16 1789.09 1199.64 1789 1200.16 1789ZM1169.38 1789C1169.9 1789 1170.38 1789.09 1170.82 1789.28 1171.27 1789.47 1171.66 1789.74 1171.98 1790.08 1172.31 1790.42 1172.57 1790.82 1172.76 1791.26 1172.95 1791.7 1173.04 1792.18 1173.04 1792.7 1173.04 1793.21 1172.95 1793.68 1172.76 1794.13 1172.57 1794.59 1172.31 1794.98 1171.98 1795.32 1171.66 1795.67 1171.27 1795.93 1170.82 1796.12 1170.38 1796.31 1169.9 1796.41 1169.38 1796.41 1168.86 1796.41 1168.38 1796.31 1167.94 1796.12 1167.49 1795.93 1167.1 1795.67 1166.77 1795.32 1166.45 1794.98 1166.19 1794.59 1166 1794.13 1165.81 1793.68 1165.72 1793.21 1165.72 1792.7 1165.72 1792.18 1165.81 1791.7 1166 1791.26 1166.19 1790.82 1166.45 1790.42 1166.77 1790.08 1167.1 1789.74 1167.49 1789.47 1167.94 1789.28 1168.38 1789.09 1168.86 1789 1169.38 1789Z" fill="#FFC000" fill-rule="evenodd" fill-opacity="0.6"/><path d="M1308.65 1750C1309.26 1750 1309.84 1750.12 1310.39 1750.35 1310.93 1750.59 1311.41 1750.91 1311.81 1751.32 1312.22 1751.74 1312.53 1752.22 1312.77 1752.77 1313 1753.32 1313.12 1753.91 1313.12 1754.54 1313.12 1755.15 1313 1755.73 1312.77 1756.27 1312.53 1756.81 1312.22 1757.28 1311.81 1757.69 1311.41 1758.09 1310.93 1758.41 1310.39 1758.65 1309.84 1758.88 1309.26 1759 1308.65 1759 1308.03 1759 1307.44 1758.88 1306.91 1758.65 1306.37 1758.41 1305.9 1758.09 1305.49 1757.69 1305.09 1757.28 1304.77 1756.81 1304.54 1756.27 1304.31 1755.73 1304.19 1755.15 1304.19 1754.54 1304.19 1753.91 1304.31 1753.32 1304.54 1752.77 1304.77 1752.22 1305.09 1751.74 1305.49 1751.32 1305.9 1750.91 1306.37 1750.59 1306.91 1750.35 1307.44 1750.12 1308.03 1750 1308.65 1750ZM1357.46 1731.38 1362.78 1731.38 1369.4 1749.32 1370.82 1753.7 1372.3 1749.22 1378.86 1731.38 1384 1731.38 1373.41 1758.51 1368.03 1758.51ZM1330.22 1731.38 1342.94 1731.38 1342.94 1754.59 1350.98 1754.59 1350.98 1758.51 1329.33 1758.51 1329.33 1754.59 1338.21 1754.59 1338.21 1735.27 1330.22 1735.27ZM1280.61 1731C1282 1731 1283.31 1731.1 1284.53 1731.3 1285.75 1731.5 1286.92 1731.82 1288.03 1732.27L1288.03 1736.76C1286.86 1736.14 1285.68 1735.7 1284.47 1735.42 1283.26 1735.14 1282 1735 1280.71 1735 1279.51 1735 1278.38 1735.23 1277.31 1735.69 1276.25 1736.15 1275.31 1736.81 1274.5 1737.68 1273.7 1738.54 1273.06 1739.59 1272.59 1740.84 1272.13 1742.08 1271.89 1743.49 1271.89 1745.05 1271.89 1748.33 1272.69 1750.79 1274.27 1752.42 1275.86 1754.05 1278.06 1754.86 1280.88 1754.86 1282.15 1754.86 1283.38 1754.72 1284.57 1754.43 1285.77 1754.14 1286.92 1753.71 1288.03 1753.14L1288.03 1757.51C1286.81 1757.98 1285.56 1758.33 1284.28 1758.55 1283 1758.78 1281.67 1758.89 1280.31 1758.89 1276.04 1758.89 1272.76 1757.73 1270.46 1755.41 1268.15 1753.08 1267 1749.68 1267 1745.22 1267 1743.07 1267.33 1741.13 1267.99 1739.38 1268.66 1737.63 1269.59 1736.14 1270.79 1734.89 1271.99 1733.65 1273.43 1732.69 1275.09 1732.01 1276.76 1731.34 1278.6 1731 1280.61 1731ZM1339.85 1720C1340.37 1720 1340.85 1720.09 1341.3 1720.28 1341.75 1720.47 1342.14 1720.74 1342.47 1721.08 1342.8 1721.42 1343.06 1721.82 1343.25 1722.26 1343.44 1722.7 1343.53 1723.18 1343.53 1723.7 1343.53 1724.21 1343.44 1724.68 1343.25 1725.14 1343.06 1725.59 1342.8 1725.98 1342.47 1726.32 1342.14 1726.67 1341.75 1726.93 1341.3 1727.12 1340.85 1727.31 1340.37 1727.41 1339.85 1727.41 1339.33 1727.41 1338.84 1727.31 1338.39 1727.12 1337.95 1726.93 1337.56 1726.67 1337.22 1726.32 1336.89 1725.98 1336.63 1725.59 1336.44 1725.14 1336.26 1724.68 1336.16 1724.21 1336.16 1723.7 1336.16 1723.18 1336.26 1722.7 1336.44 1722.26 1336.63 1721.82 1336.89 1721.42 1337.22 1721.08 1337.56 1720.74 1337.95 1720.47 1338.39 1720.28 1338.84 1720.09 1339.33 1720 1339.85 1720Z" fill="#FFC000" fill-rule="evenodd" fill-opacity="0.6"/>

<path 

  class="flux"

d="M1314.5 1235.06 1342 1235.06 1342 1241.94 1314.5 1241.94ZM1362.62 1235.06 1390.12 1235.06 1390.12 1241.94 1362.62 1241.94ZM1410.75 1235.06 1438.25 1235.06 1438.25 1241.94 1410.75 1241.94ZM1458.88 1235.06 1486.38 1235.06 1486.38 1241.94 1458.88 1241.94ZM1507 1235.06 1534.5 1235.06 1534.5 1241.94 1507 1241.94ZM1555.12 1235.06 1582.62 1235.06 1582.62 1241.94 1555.12 1241.94ZM1603.25 1235.06 1630.75 1235.06 1630.75 1241.94 1603.25 1241.94ZM1651.38 1235.06 1678.88 1235.06 1678.88 1241.94 1651.38 1241.94ZM1699.5 1235.06 1727 1235.06 1727 1241.94 1699.5 1241.94ZM1747.62 1235.06 1775.12 1235.06 1775.12 1241.94 1747.62 1241.94ZM1795.75 1235.06 1823.25 1235.06 1823.25 1241.94 1795.75 1241.94ZM1843.88 1235.06 1871.38 1235.06 1871.38 1241.94 1843.88 1241.94ZM1892 1235.06 1919.5 1235.06 1919.5 1241.94 1892 1241.94ZM1940.12 1235.06 1967.62 1235.06 1967.62 1241.94 1940.12 1241.94ZM1988.25 1235.06 2015.75 1235.06 2015.75 1241.94 1988.25 1241.94ZM2036.38 1235.06 2063.88 1235.06 2063.88 1241.94 2036.38 1241.94ZM2084.5 1235.06 2112 1235.06 2112 1241.94 2084.5 1241.94ZM2132.62 1235.06 2160.12 1235.06 2160.12 1241.94 2132.62 1241.94ZM2180.75 1235.06 2208.25 1235.06 2208.25 1241.94 2180.75 1241.94ZM2228.88 1235.06 2256.38 1235.06 2256.38 1241.94 2228.88 1241.94ZM2277 1235.06 2304.5 1235.06 2304.5 1241.94 2277 1241.94ZM2325.12 1235.06 2352.62 1235.06 2352.62 1241.94 2325.12 1241.94ZM2373.25 1235.06 2400.75 1235.06 2400.75 1241.94 2373.25 1241.94ZM2421.38 1235.06 2448.88 1235.06 2448.88 1241.94 2421.38 1241.94ZM2469.5 1235.06 2497 1235.06 2497 1241.94 2469.5 1241.94ZM2517.62 1235.06 2545.12 1235.06 2545.12 1241.94 2517.62 1241.94ZM2565.75 1235.06 2593.25 1235.06 2593.25 1241.94 2565.75 1241.94ZM2613.88 1235.06 2641.38 1235.06 2641.38 1241.94 2613.88 1241.94ZM2662 1235.06 2689.5 1235.06 2689.5 1241.94 2662 1241.94ZM2710.12 1235.06 2737.62 1235.06 2737.62 1241.94 2710.12 1241.94ZM2758.25 1235.06 2785.75 1235.06 2785.75 1241.94 2758.25 1241.94ZM2786.86 1224.75 2814.36 1238.5 2786.86 1252.25Z" fill="#FFFFFF"/>

<path 

  class="flux"

d="M4.8271e-06-3.4375 27.5-3.43746 27.5 3.43754-4.8271e-06 3.4375ZM48.125-3.43743 75.625-3.43739 75.625 3.43761 48.125 3.43757ZM96.25-3.43736 123.75-3.43733 123.75 3.43767 96.25 3.43764ZM144.375-3.4373 171.875-3.43726 171.875 3.43774 144.375 3.4377ZM192.5-3.43723 220-3.43719 220 3.43781 192.5 3.43777ZM229.501-13.7497 257 0.000360892 229.5 13.7503Z" fill="#FFFFFF" transform="matrix(1 0 0 -1 453.5 1240.5)"/>

<path

  class="flux"

 d="M882.778 1139.62 890.182 1131.78 895.865 1126.62 901.977 1121.44 903.18 1120.49 907.434 1125.89 906.278 1126.8 906.374 1126.73 900.355 1131.83 900.445 1131.75 894.903 1136.78 895.09 1136.6 887.776 1144.34ZM920.035 1108.17 923.006 1106.18 930.851 1101.4 939.08 1096.88 944.309 1094.33 947.322 1100.51 942.168 1103.02 942.316 1102.94 934.228 1107.39 934.362 1107.31 926.646 1112.01 926.769 1111.93 923.858 1113.88ZM963.709 1086.34 965.888 1085.55 975.464 1082.75 985.328 1080.53 991.025 1079.66 992.064 1086.46 986.483 1087.31 986.716 1087.27 977.077 1089.43 977.292 1089.37 967.921 1092.12 968.118 1092.06 966.037 1092.81ZM1012.08 1078.16 1016.42 1078.16 1027.21 1079.01 1038.16 1080.8 1040.19 1081.31 1038.52 1087.98 1036.63 1087.5 1036.91 1087.56 1026.24 1085.82 1026.52 1085.85 1016.02 1085.02 1016.29 1085.03 1012.09 1085.04ZM1060.2 1087.34 1060.47 1087.44 1071.77 1092.41 1083.14 1098.58 1085.47 1100.09 1081.72 1105.85 1079.51 1104.42 1079.74 1104.55 1068.62 1098.52 1068.87 1098.65 1057.83 1093.79 1058.1 1093.89 1057.97 1093.84ZM1102.54 1112.09 1105.97 1114.71 1117.4 1124.8 1123.32 1130.78 1118.44 1135.62 1112.59 1129.71 1112.76 1129.87 1101.52 1119.94 1101.71 1120.1 1098.37 1117.55ZM1137.46 1146.15 1140.12 1149.29 1134.88 1153.73 1132.22 1150.59ZM898.742 1147.35 870.5 1159.5 877.722 1129.61Z" fill="#FFFFFF"/>


<path

  class="flux"

 d="M919.221 1174.82 928.691 1165.58 938.679 1157.85 940.609 1156.59 944.369 1162.34 942.555 1163.53 942.78 1163.37 933.056 1170.9 933.351 1170.64 924.022 1179.74ZM958.598 1145.91 962.119 1144.05 968.704 1141.18 975.494 1138.68 982.512 1136.58 985.117 1135.98 986.654 1142.68 984.16 1143.25 984.379 1143.2 977.57 1145.24 977.771 1145.17 971.172 1147.6 971.354 1147.53 964.981 1150.3 965.221 1150.18 961.817 1151.99ZM1006.28 1133.14 1012.56 1133.13 1020.48 1133.77 1028.53 1135.12 1034.32 1136.61 1032.61 1143.26 1026.96 1141.81 1027.25 1141.87 1019.49 1140.58 1019.78 1140.61 1012.15 1140 1012.43 1140.01 1006.29 1140.02ZM1054.29 1144.45 1061.51 1148.46 1069.86 1154.01 1077.55 1160.01 1073.32 1165.43 1065.74 1159.51 1065.95 1159.66 1057.82 1154.26 1058.06 1154.4 1050.96 1150.46ZM1092.83 1174.55 1094.89 1176.69 1103.11 1186.33 1097.88 1190.79 1089.73 1181.23 1089.88 1181.39 1087.88 1179.33ZM934.978 1182.91 906.5 1194.5 914.314 1164.76Z" fill="#FFFFFF"/>

<path 

  class="flux"

d="M706.442 1172.82 699.604 1167.22 686.872 1155.62 685.622 1154.39 690.452 1149.5 691.653 1150.68 691.552 1150.59 704.167 1162.07 704.031 1161.96 710.8 1167.51ZM670.978 1139.67 661.339 1129.35 652.534 1119.09 657.75 1114.61 666.509 1124.81 666.414 1124.71 676.004 1134.98ZM639.491 1102.93 636.303 1098.88 624.207 1082.07 623.146 1080.45 628.9 1076.68 629.919 1078.24 629.833 1078.12 641.84 1094.81 641.75 1094.69 644.892 1098.68ZM611.824 1063.02 601.337 1045.27 598.042 1039.05 604.118 1035.83 607.375 1041.98 607.297 1041.84 617.743 1059.53ZM588.538 1020.56 580.86 1004.21 577.207 995.329 583.565 992.714 587.187 1001.52 587.119 1001.37 594.761 1017.64ZM569.598 975.98 563.54 958.872 560.82 949.744 567.408 947.78 570.104 956.824 570.05 956.659 576.079 973.685ZM555.125 929.742 550.16 909.312 556.84 907.688 561.805 928.119ZM713.647 1156.57 726.5 1184.5 696.444 1178.02Z" fill="#FFFFFF"/>

<path

  class="flux"

 d="M690.922 1205.72 682.066 1202.69 682.163 1202.72 676.185 1200.87 669.83 1198.9 664.832 1197.33 666.889 1190.77 671.867 1192.33 678.221 1194.3 684.247 1196.17 693.15 1199.22ZM645.135 1190.9 632.676 1186.62 619.168 1181.61 621.559 1175.16 635.028 1180.16 634.95 1180.13 647.371 1184.4ZM599.912 1173.95 597.288 1172.89 577.97 1164.36 574.566 1162.71 577.566 1156.52 580.915 1158.14 580.804 1158.09 600.016 1166.58 599.913 1166.54 602.486 1167.58ZM555.946 1153.61 547.233 1149.08 536.565 1143.26 531.65 1140.45 535.063 1134.48 539.949 1137.27 539.888 1137.24 550.496 1143.03 550.436 1143 559.12 1147.51ZM513.779 1129.87 503.46 1123.38 492.099 1115.89 490.576 1114.84 494.484 1109.18 495.976 1110.21 495.914 1110.17 507.213 1117.62 507.151 1117.58 517.439 1124.05ZM473.653 1102.92 468.955 1099.52 457.197 1090.6 451.642 1086.18 455.919 1080.8 461.444 1085.19 461.383 1085.14 473.079 1094.01 473.018 1093.97 477.685 1097.35ZM692.561 1187.99 713.5 1210.5 682.926 1213.74Z" fill="#FFFFFF"/>

<path 

  class="flux"

d="M2418.48 606.954 2409.96 615.256 2398.6 626.017 2393.87 621.025 2405.22 610.28 2405.18 610.314 2413.69 602.029ZM2383.58 640.225 2363.35 658.851 2358.69 653.793 2378.92 635.167ZM2348.03 672.729 2328.96 689.798 2327.48 691.082 2322.97 685.897 2324.43 684.628 2324.39 684.659 2343.44 667.606ZM2311.93 704.624 2300.04 714.971 2291.04 722.588 2286.6 717.34 2295.58 709.739 2295.55 709.77 2307.41 699.439ZM2275.3 735.912 2270.23 740.202 2254.08 753.484 2249.72 748.175 2265.84 734.908 2265.81 734.938 2270.86 730.664ZM2238.1 766.598 2216.62 783.765 2212.33 778.395 2233.81 761.227ZM2200.38 796.562 2178.65 813.419 2174.44 807.987 2196.17 791.13ZM2162.17 825.893 2142.84 840.436 2140.12 842.42 2136.07 836.865 2138.77 834.896 2138.73 834.927 2158.03 820.4ZM2123.46 854.573 2109.15 865.006 2101.11 870.686 2097.14 865.069 2105.17 859.405 2105.12 859.436 2119.41 849.019ZM2084.26 882.581 2074.81 889.254 2061.6 898.264 2057.73 892.585 2070.91 883.59 2070.86 883.621 2080.29 876.964ZM2044.57 909.89 2039.84 913.116 2021.61 925.126 2017.83 919.385 2036.04 907.39 2035.99 907.421 2040.69 904.212ZM2004.38 936.472 2004.3 936.53 1981.12 951.24 1977.43 945.435 2000.59 930.741 2000.54 930.772 2000.6 930.731ZM1963.6 962.244 1940.13 976.568 1936.54 970.699 1960.02 956.375ZM1922.36 987.175 1898.63 1001.07 1895.16 995.134 1918.89 981.242ZM1880.62 1011.25 1857.1 1024.43 1856.56 1024.71 1853.33 1018.65 1853.83 1018.38 1853.77 1018.41 1877.26 1005.26ZM1838.37 1034.43 1819.24 1044.65 1813.99 1047.31 1810.88 1041.18 1816.09 1038.54 1816.03 1038.57 1835.13 1028.37ZM1795.6 1056.65 1781.03 1064.04 1770.9 1068.91 1767.93 1062.71 1778.02 1057.86 1777.96 1057.89 1792.49 1050.52ZM1752.31 1077.84 1742.52 1082.54 1727.29 1089.43 1724.46 1083.17 1739.65 1076.29 1739.58 1076.32 1749.34 1071.64ZM1708.5 1097.93 1703.75 1100.08 1683.15 1108.8 1680.47 1102.47 1701.03 1093.77 1700.95 1093.8 1705.67 1091.67ZM1664.07 1116.87 1638.49 1126.94 1635.97 1120.55 1661.55 1110.47ZM1619.15 1134.37 1593.3 1143.76 1590.95 1137.29 1616.8 1127.9ZM1573.7 1150.48 1547.6 1159.13 1545.43 1152.61 1571.54 1143.95ZM1527.74 1165.09 1507.21 1171.23 1501.24 1172.81 1499.48 1166.16 1505.39 1164.59 1505.29 1164.62 1525.78 1158.5ZM1481.3 1178.08 1467.64 1181.7 1454.5 1184.71 1452.96 1178.01 1466.05 1175.01 1465.94 1175.04 1479.54 1171.44ZM1434.39 1189.32 1428.09 1190.76 1408.31 1194.76 1407.32 1194.94 1406.08 1188.17 1407.05 1188 1406.98 1188.01 1426.69 1184.03 1426.6 1184.05 1432.86 1182.62ZM1386.96 1198.63 1368.83 1201.6 1359.73 1202.91 1358.75 1196.11 1367.82 1194.8 1367.76 1194.81 1385.85 1191.85ZM1339.23 1205.67 1329.46 1206.89 1311.83 1208.71 1311.12 1201.88 1328.71 1200.05 1328.64 1200.06 1338.38 1198.85ZM2403.21 597.841 2432.5 588.5 2422.4 617.539Z" fill="#FFFFFF"/>

<path

  class="flux"

 d="M1551.47 591.529 1550.9 608.279 1550.32 619.07 1543.46 618.703 1544.03 607.945 1544.03 608.01 1544.6 591.294ZM1549 639.7 1548.93 640.618 1547.49 658.279 1546.63 667.197 1539.79 666.536 1540.64 657.643 1540.64 657.693 1542.08 640.082 1542.08 640.13 1542.14 639.238ZM1544.47 687.761 1543.53 696.177 1541.11 715.109 1534.29 714.236 1536.71 695.331 1536.7 695.385 1537.64 686.996ZM1538.16 735.58 1537.96 736.956 1534.5 758.218 1533.66 762.833 1526.9 761.605 1527.73 757.021 1527.72 757.083 1531.17 735.881 1531.16 735.941 1531.36 734.594ZM1529.91 783.18 1526.09 802.074 1524.29 810.171 1517.58 808.673 1519.38 800.611 1519.36 800.68 1523.17 781.82ZM1519.65 830.344 1515.51 847.149 1512.82 857.064 1506.19 855.265 1508.86 845.388 1508.84 845.466 1512.97 828.7ZM1507.23 877.002 1502.53 892.778 1499.06 903.356 1492.53 901.219 1495.98 890.684 1495.95 890.771 1500.64 875.039ZM1492.41 922.979 1486.91 938.299 1482.76 948.839 1476.36 946.32 1480.49 935.828 1480.46 935.926 1485.94 920.657ZM1474.92 968.036 1468.44 983.044 1463.61 993.227 1457.39 990.28 1462.2 980.151 1462.15 980.261 1468.61 965.309ZM1454.44 1011.85 1446.88 1026.35 1441.25 1036.13 1435.29 1032.71 1440.88 1022.98 1440.81 1023.11 1448.35 1008.67ZM1430.61 1053.96 1421.99 1067.55 1415.34 1077.02 1409.71 1073.07 1416.32 1063.66 1416.23 1063.8 1424.8 1050.28ZM1403.05 1093.79 1393.55 1105.96 1385.51 1115.2 1380.32 1110.69 1388.3 1101.52 1388.19 1101.66 1397.62 1089.56ZM1371.45 1130.55 1361.32 1140.93 1351.54 1149.8 1346.92 1144.7 1356.62 1135.9 1356.47 1136.05 1366.53 1125.74ZM1335.67 1163.3 1325.06 1171.75 1313.41 1179.82 1309.5 1174.16 1321.05 1166.16 1320.87 1166.3 1331.39 1157.92ZM1534.19 595.715 1548.5 568.5 1561.69 596.274Z" fill="#FFFFFF"/><g><g><g>


<path

  class="flux"

 d="M1200.5 1162.31C1157.86 1162.3 1123.28 1196.86 1123.27 1239.5 1123.26 1282.14 1157.81 1316.72 1200.46 1316.73 1243.1 1316.74 1277.68 1282.19 1277.69 1239.54 1277.69 1239.54 1277.69 1239.53 1277.69 1239.52 1277.71 1196.9 1243.18 1162.33 1200.56 1162.31 1200.54 1162.31 1200.52 1162.31 1200.5 1162.31ZM1200.5 1312.67C1160.1 1312.68 1127.34 1279.94 1127.33 1239.54 1127.32 1199.14 1160.06 1166.39 1200.46 1166.37 1240.85 1166.36 1273.61 1199.1 1273.62 1239.5 1273.62 1239.51 1273.62 1239.52 1273.62 1239.53 1273.58 1279.9 1240.87 1312.62 1200.5 1312.67Z" stroke="#FFC000" stroke-width="9.28571" fill="#FFC000"/><path d="M1163.94 1237.47 1235.03 1237.47 1235.03 1241.53 1163.94 1241.53Z" stroke="#FFC000" stroke-width="9.28571" fill="#FFC000"/></g></g></g><g><g><g>

<path   

d="M812.5 1162.31C769.858 1162.3 735.28 1196.86 735.268 1239.5 735.255 1282.14 769.813 1316.72 812.455 1316.73 855.097 1316.74 889.675 1282.19 889.687 1239.54 889.687 1239.54 889.687 1239.53 889.687 1239.52 889.71 1196.9 855.179 1162.33 812.561 1162.31 812.541 1162.31 812.52 1162.31 812.5 1162.31ZM812.5 1312.67C772.102 1312.68 739.343 1279.94 739.33 1239.54 739.318 1199.14 772.057 1166.39 812.455 1166.37 852.853 1166.36 885.613 1199.1 885.625 1239.5 885.625 1239.51 885.625 1239.52 885.625 1239.53 885.585 1279.9 852.873 1312.62 812.5 1312.67Z" stroke="#FFC000" stroke-width="9.28571" fill="#FFC000"/><path d="M813.516 1203.98 809.453 1203.98 809.453 1237.47 775.938 1237.47 775.938 1241.53 809.453 1241.53 809.453 1275.08 813.516 1275.08 813.516 1241.53 847.031 1241.53 847.031 1237.47 813.516 1237.47 813.516 1203.98Z" stroke="#FFC000" stroke-width="9.28571" fill="#FFC000"/></g></g></g>

<path 

  class="flux"

d="M58.1233 254.722 50.2841 247.318 45.1192 241.635 39.9411 235.523 38.9932 234.32 44.3947 230.066 45.3044 231.222 45.2263 231.126 50.3259 237.145 50.2473 237.055 55.2838 242.597 55.1002 242.41 62.844 249.724ZM26.6657 217.465 24.6779 214.494 19.8965 206.649 15.3774 198.42 12.8278 193.191 19.0073 190.178 21.5204 195.332 21.4437 195.184 25.8853 203.272 25.8075 203.138 30.5105 210.854 30.4322 210.731 32.3796 213.642ZM4.83722 173.79 4.05334 171.612 1.24573 162.036-0.965868 152.172-1.83635 146.475 4.95979 145.436 5.81236 151.017 5.76851 150.784 7.92986 160.423 7.87431 160.208 10.6215 169.579 10.5573 169.382 11.3061 171.462ZM-3.33737 125.417-3.34345 121.08-2.49036 110.294-0.702791 99.3392-0.192407 97.3071 6.47548 98.9819 6.00043 100.873 6.05912 100.589 4.31784 111.261 4.35201 110.978 3.52104 121.485 3.53174 121.209 3.53762 125.407ZM5.8423 77.2996 5.93533 77.0287 10.912 65.726 17.0758 54.3588 18.5886 52.0302 24.3537 55.7757 22.9152 57.99 23.0544 57.7558 17.023 68.879 17.1472 68.6256 12.2856 79.667 12.3907 79.3982 12.3446 79.5325ZM30.5892 34.9551 33.2068 31.525 43.2951 20.1021 49.2813 14.1775 54.1174 19.064 48.2133 24.9073 48.3718 24.7396 38.4413 35.9838 38.5974 35.7937 36.0545 39.1259ZM64.647 0.0377333 67.7875-2.62284 72.2315 2.62284 69.0909 5.28341ZM65.8465 238.758 78 267 48.1144 259.778Z" fill="#FFFFFF" transform="matrix(-1.83697e-16 -1 -1 1.83697e-16 1137.5 1395.5)"/>

<path

  class="flux"

 d="M38.3202 181.278 29.0822 171.809 21.3458 161.821 20.0849 159.891 25.8401 156.13 27.0255 157.944 26.8656 157.72 34.3973 167.444 34.1403 167.148 43.2414 176.478ZM9.41057 141.901 7.54492 138.38 4.68358 131.795 2.18304 125.006 0.0773346 117.988-0.520403 115.383 6.18044 113.845 6.75283 116.34 6.69491 116.121 8.7377 122.929 8.67088 122.729 11.101 129.327 11.0281 129.145 13.7974 135.518 13.6822 135.279 15.4856 138.683ZM-3.35861 94.2222-3.36762 87.9362-2.72657 80.0163-1.38338 71.9729 0.106285 66.1775 6.76483 67.8891 5.31205 73.5409 5.37332 73.2514 4.07853 81.005 4.11427 80.7161 3.49637 88.35 3.50757 88.0677 3.51638 94.2123ZM7.9502 46.2066 11.9572 38.9858 17.5093 30.6354 23.5119 22.9494 28.9303 27.1811 23.0083 34.7637 23.1617 34.5511 17.7586 42.6775 17.9018 42.4422 13.9616 49.5425ZM38.0504 7.67434 40.1876 5.6075 49.8276-2.61531 54.2892 2.61531 44.7309 10.7684 44.8897 10.6241 42.8297 12.6164ZM46.41 165.522 58.0001 194 28.2638 186.185Z" fill="#FFFFFF" transform="matrix(-1.83697e-16 -1 -1 1.83697e-16 1100.5 1341.5)"/>

<path 

  class="flux"

d="M152.942 264.323 146.104 258.717 133.372 247.125 132.122 245.89 136.952 240.998 138.153 242.183 138.052 242.088 150.667 253.574 150.531 253.457 157.3 259.005ZM117.478 231.172 107.839 220.846 99.0336 210.59 104.25 206.112 113.009 216.314 112.914 216.207 122.504 226.481ZM85.9908 194.43 82.8029 190.382 70.7074 173.57 69.6462 171.948 75.3998 168.185 76.4192 169.743 76.3327 169.617 88.34 186.306 88.2503 186.187 91.3921 190.177ZM58.324 154.523 47.8366 136.771 44.5417 130.547 50.6179 127.33 53.8751 133.483 53.7967 133.343 64.2432 151.026ZM35.0379 112.062 27.3603 95.7127 23.7069 86.8286 30.0652 84.2139 33.6867 93.0202 33.619 92.8665 41.2609 109.14ZM16.0985 67.48 10.0404 50.3716 7.31966 41.2437 13.9082 39.2798 16.6041 48.3243 16.5501 48.1588 22.5792 65.1852ZM1.62465 21.2423-3.34028 0.81174 3.34028-0.81174 8.30522 19.6188ZM160.147 248.07 173 276 142.944 269.524Z" fill="#FFFFFF" transform="matrix(1 0 0 -1 553.5 1569.5)"/>

<path

  class="flux"

 d="M243.421 127.223 234.566 124.188 234.663 124.22 228.685 122.367 222.33 120.395 217.332 118.828 219.389 112.268 224.367 113.829 230.721 115.8 236.747 117.668 245.65 120.719ZM197.635 112.401 185.176 108.117 171.668 103.107 174.059 96.6611 187.528 101.656 187.45 101.629 199.871 105.9ZM152.412 95.4518 149.788 94.3922 130.47 85.8564 127.066 84.2054 130.066 78.0195 133.415 79.6439 133.304 79.5926 152.516 88.0813 152.413 88.038 154.986 89.0767ZM108.446 75.1125 99.7331 70.5791 89.0649 64.7591 84.1497 61.9474 87.5634 55.9798 92.4485 58.7742 92.3879 58.7404 102.996 64.5276 102.936 64.4958 111.619 69.0137ZM66.2793 51.3682 55.9604 44.8795 44.5985 37.39 43.0757 36.3379 46.9835 30.6816 48.4755 31.7124 48.4134 31.6705 59.7133 39.119 59.6513 39.0791 69.939 45.5482ZM26.1534 24.4169 21.455 21.0153 9.69713 12.0963 4.14183 7.68188 8.41897 2.29934 13.944 6.6897 13.8829 6.64226 25.5794 15.5147 25.5178 15.4691 30.1851 18.8481ZM245.061 109.487 266 132 235.426 135.244Z" fill="#FFFFFF" transform="matrix(1 0 0 -1 447.5 1398.5)"/>

<path 

  class="flux"

d="M597.558 1108.97 589.282 1100.46 578.511 1089.07 583.507 1084.34 594.261 1095.72 594.227 1095.68 602.486 1104.18ZM564.315 1074.04 545.706 1053.79 550.768 1049.14 569.377 1069.39ZM531.841 1038.46 514.86 1019.46 513.505 1017.9 518.695 1013.39 520.034 1014.93 520.002 1014.89 536.967 1033.88ZM499.976 1002.33 489.728 990.539 482.031 981.43 487.282 976.993 494.964 986.084 494.933 986.048 505.165 997.821ZM468.719 965.677 464.538 960.729 451.165 944.446 456.478 940.083 469.836 956.347 469.805 956.31 473.97 961.239ZM438.067 928.451 420.916 906.955 426.29 902.667 443.441 924.164ZM408.135 890.705 391.295 868.964 396.73 864.754 413.57 886.495ZM378.836 852.465 364.466 833.339 362.33 830.405 367.888 826.358 370.009 829.272 369.978 829.23 384.333 848.335ZM350.189 813.732 339.936 799.651 334.098 791.367 339.717 787.406 345.54 795.668 345.51 795.625 355.747 809.685ZM322.216 774.509 315.728 765.304 306.554 751.839 312.235 747.968 321.394 761.411 321.363 761.366 327.835 770.548ZM294.94 734.795 291.904 730.339 279.726 711.82 285.47 708.042 297.633 726.538 297.601 726.491 300.622 730.924ZM268.365 694.536 253.647 671.306 259.454 667.627 274.173 690.856ZM242.662 653.779 228.354 630.294 234.226 626.718 248.533 650.203ZM217.766 612.523 203.89 588.78 209.826 585.311 223.701 609.054ZM193.722 570.761 180.771 547.595 180.287 546.688 186.353 543.453 186.821 544.33 186.788 544.27 199.723 567.406ZM170.583 528.489 160.584 509.736 157.727 504.099 163.86 500.991 166.7 506.597 166.667 506.533 176.649 525.254ZM148.404 485.701 141.225 471.532 136.169 460.99 142.368 458.018 147.407 468.525 147.374 468.458 154.537 482.593ZM127.251 442.393 122.756 433.022 115.683 417.36 121.948 414.53 129.006 430.156 128.972 430.084 133.45 439.421ZM107.193 398.563 105.243 394.244 96.345 373.204 102.677 370.526 111.559 391.528 111.525 391.452 113.459 395.733ZM88.3059 354.116 78.2413 328.524 84.6394 326.008 94.7039 351.6ZM70.8421 309.175 61.4663 283.323 67.9294 280.979 77.3052 306.831ZM54.7663 263.716 46.1244 237.609 52.6511 235.448 61.293 261.555ZM40.1895 217.749 34.2115 197.704 32.5023 191.235 39.1492 189.479 40.8445 195.896 40.8152 195.791 46.7777 215.784ZM27.2336 171.295 23.7577 158.139 20.6326 144.485 27.3343 142.951 30.4466 156.549 30.4192 156.438 33.8805 169.538ZM16.031 124.379 14.7068 118.594 10.7215 98.8133 10.4449 97.2993 17.208 96.0636 17.479 97.547 17.4673 97.4859 21.4375 117.192 21.4186 117.104 22.7327 122.846ZM6.76584 76.9404 3.88626 59.3336 2.50038 49.7079 9.30521 48.7282 10.6864 58.3213 10.6764 58.2563 13.5507 75.8308ZM-0.243805 29.1991-1.38969 19.9565-3.26976 1.7976 3.56868 1.08959 5.44518 19.2139 5.43734 19.145 6.57896 28.3533ZM606.683 1093.7 616 1123 586.969 1112.87Z" fill="#FFFFFF" transform="matrix(6.12323e-17 1 1 -6.12323e-17 1309.5 1272.5)"/>

<path 

  class="flux"

d="M590.97 247.97 574.221 247.397 563.43 246.82 563.797 239.955 574.555 240.53 574.489 240.527 591.206 241.099ZM542.799 245.496 541.882 245.435 524.221 243.99 515.303 243.128 515.964 236.285 524.857 237.144 524.807 237.14 542.418 238.58 542.369 238.577 543.262 238.637ZM494.738 240.974 486.323 240.032 467.391 237.608 468.264 230.789 487.169 233.209 487.115 233.202 495.503 234.141ZM446.92 234.661 445.544 234.462 424.281 231.003 419.667 230.165 420.895 223.4 425.479 224.233 425.417 224.222 446.618 227.671 446.559 227.662 447.906 227.857ZM399.32 226.405 380.426 222.594 372.329 220.786 373.827 214.077 381.889 215.876 381.82 215.862 400.68 219.666ZM352.156 216.149 335.351 212.01 325.436 209.322 327.235 202.686 337.112 205.364 337.034 205.344 353.8 209.473ZM305.498 203.726 289.721 199.025 279.144 195.564 281.281 189.03 291.816 192.477 291.729 192.449 307.461 197.137ZM259.521 188.909 244.201 183.41 233.661 179.26 236.18 172.863 246.672 176.994 246.573 176.957 261.843 182.439ZM214.464 171.423 199.456 164.938 189.272 160.105 192.22 153.894 202.349 158.701 202.238 158.651 217.191 165.112ZM170.653 150.942 156.151 143.375 146.369 137.754 149.794 131.793 159.515 137.379 159.393 137.312 173.834 144.847ZM128.536 127.106 114.954 118.49 105.479 111.837 109.43 106.211 118.838 112.818 118.704 112.728 132.218 121.3ZM88.71 99.5454 76.5356 90.0489 67.2994 82.0101 71.813 76.8243 80.9795 84.8024 80.837 84.6849 92.9385 94.1246ZM51.9526 67.9505 41.5734 57.8167 32.7035 48.0372 37.7959 43.4185 46.5957 53.1207 46.4509 52.9705 56.7555 63.0313ZM19.2002 32.1711 10.7501 21.5632 2.68427 9.91483 8.33649 6.00101 16.3367 17.5546 16.1993 17.3698 24.5776 27.8875ZM586.785 230.694 614 245 586.226 258.189Z" fill="#FFFFFF" transform="matrix(6.12323e-17 1 1 -6.12323e-17 1303.5 1295.5)"/>

</g>

</svg>
